<?xml version="1.0" encoding="utf-8"?>
<!-- Generator: Adobe Illustrator 22.1.0, SVG Export Plug-In . SVG Version: 6.00 Build 0)  -->
<svg version="1.1" id="Layer_1" xmlns="http://www.w3.org/2000/svg" xmlns:xlink="http://www.w3.org/1999/xlink" x="0px" y="0px"
	 viewBox="0 0 1062.9 279.9" style="enable-background:new 0 0 1062.9 279.9;" xml:space="preserve">
<path d="M492.2,116.4c13.4,0,21.8,9.1,21.8,23.8c0,14.7-8.4,23.8-21.8,23.8c-13.4,0-21.8-9.2-21.8-23.8
	C470.4,125.5,478.8,116.4,492.2,116.4 M981.7,75.4v80.5c0,26.9-21.8,48.6-48.6,48.6H129.8v0H81.2V124c0-26.9,21.8-48.6,48.6-48.6
	h541.4H981.7z M157.7,133.9V118h40.5v-13.5h-58.5v71.3h18V147h38.7v-13.2H157.7z M225.9,146.7v-42.2h-18.1v43.3
	c0,18.1,12.9,30,35.2,30c22.3,0,35.2-11.9,35.2-29.9v-43.4H260v42.2c0,9.9-6.2,16.8-17.1,16.8C232.1,163.5,225.9,156.7,225.9,146.7z
	 M310.9,161.4v-56.9h-18v71.3h55.4v-14.5H310.9z M375.3,161.4v-56.9h-18v71.3h55.4v-14.5H375.3z M492.2,177.9
	c24.6,0,40.6-14.7,40.6-37.7c0-23-16-37.7-40.6-37.7c-24.6,0-40.6,14.7-40.6,37.7C451.6,163.2,467.6,177.9,492.2,177.9z M615,104.5
	h-16.5v40.1v9.4h-0.2c-1.1-2.6-2.9-5.8-4.8-8.6l-29.6-40.9h-19.7v71.3h16.5v-40.2c0-3.4,0-6.5-0.1-9.5h0.3c1,2.4,3,5.6,4.7,8.3
	l30.7,41.4H615V104.5z M973.4,83.7H671.2v72.2c0,16.8-8.5,31.6-21.4,40.3H933c22.2,0,40.3-18.1,40.3-40.3V83.7z M698.9,173.6h60.8
	v-13H723c9.3-3.6,16.6-7.5,22.2-11.4c8.6-6.2,13.4-13.3,13.4-22.9c0-13.8-10.7-22.2-29.3-22.2c-18.1,0-30.1,8.9-30.1,22.4
	c0,1.6,0.1,3.1,0.4,4.6l17.2,1.7c-0.3-1.7-0.5-3.2-0.5-4.5c0-7.1,4.7-11.4,12.4-11.4c8.1,0,11.9,4.4,11.9,10.7
	c0,6.2-2.6,11-10.2,16.5c-7.2,5.3-18.1,11.2-31.6,17.5V173.6z M798.6,175.5c20.4,0,33.6-13.3,33.6-35.6c0-22.4-13.1-35.7-33.6-35.7
	s-33.5,13.3-33.5,35.7C765.1,162.1,778.1,175.5,798.6,175.5z M798.6,162.8c-9.8,0-16.1-7.8-16.1-23c0-15.3,6.3-23,16.1-23
	c9.9,0,16.2,7.8,16.2,23C814.8,155,808.5,162.8,798.6,162.8z M853.8,173.6h16.7V106h-13.9c-3,7.6-8.8,11.3-18,11.5h-2.1v14.6h3.4
	c5.8,0,11.1-1.7,13.9-4.5V173.6z M911.1,104.2c-18.3,0-30,9.4-30,23.4c0,13.9,10.1,22.3,26.5,22.3c8.9,0,15.8-2.8,19.6-7.8
	c-0.1,13.1-5.4,20.8-15.8,20.8c-6.9,0-11.4-3.3-13-9.1l-16.4,2.6c2.5,12.2,13.2,19.1,28.8,19.1c21.6,0,32.5-13.7,32.5-36.8
	C943.3,116.1,931.8,104.2,911.1,104.2z M911,138.1c-8.2,0-13.3-4.2-13.3-10.8c0-7,5.3-11.4,13.7-11.4c9.1,0,14.1,5.2,15.4,12.6
	C924.6,134.4,918.6,138.1,911,138.1z"/>
</svg>