<?xml version="1.0" encoding="utf-8"?>

<!-- Generator: Adobe Illustrator 21.1.0, SVG Export Plug-In . SVG Version: 6.00 Build 0)  -->

<svg version="1.1" id="LOCKUP_x5F_Centered" xmlns="http://www.w3.org/2000/svg" xmlns:xlink="http://www.w3.org/1999/xlink"

	 x="0px" y="0px" viewBox="0 0 1325.9 454.7" style="enable-background:new 0 0 1325.9 454.7;" xml:space="preserve">

<path d="M183.7,413.7l6.9-4.8c2.4,4.2,6.7,6.8,12.8,6.8c5,0,7.9-1.4,7.9-4.3c0-2.6-1.6-3.6-5.8-4.2l-7.7-1.1

	c-7.6-1.2-11.5-4.7-11.5-11.1c0-7,6.2-11.3,16.6-11.3c7.9,0,14.1,2.4,17.6,7.5l-6.1,5.1c-2.3-3.7-6.5-5.8-12-5.8

	c-4.5,0-7.2,1.4-7.2,3.9c0,2.4,1.5,3.4,5.9,4.2l7.5,1.1c8.1,1.3,11.9,4.4,11.9,10.9c0,7.6-6.4,12.2-17.6,12.2

	C193.7,422.7,186.8,419.3,183.7,413.7z"/>

<path d="M255.2,384.7v21.9c0,5.2,3.2,8.7,8.9,8.7c5.6,0,8.9-3.5,8.9-8.7v-21.9h9.4v22.5c0,9.4-6.7,15.5-18.2,15.5

	c-11.6,0-18.2-6.2-18.2-15.6v-22.5H255.2z"/>

<path d="M327.3,407.9h-7.9v13.8H310v-37h20.1c10.3,0,14.2,5.2,14.2,11.5c0,4.4-2.3,8.8-7.8,10.5l8.9,15.1h-10.3L327.3,407.9z

	 M319.4,401.6h8.8c4.6,0,6.4-2.3,6.4-5.4c0-2.9-1.8-5.1-6.4-5.1h-8.8V401.6z"/>

<path d="M366.1,384.7h10.2l9,24.4c0.6,1.9,1,3.1,1.2,4.5h0.2c0.2-1.4,0.5-2.6,1.1-4.5l9-24.4h10.2l-15,37h-11L366.1,384.7z"/>

<path d="M431.3,421.7v-37h9.3v37H431.3z"/>

<path d="M464.8,384.7H475l9,24.4c0.6,1.9,1,3.1,1.2,4.5h0.2c0.2-1.4,0.5-2.6,1.1-4.5l9-24.4h10.2l-15,37h-11L464.8,384.7z"/>

<path d="M530,421.7v-37h9.3v37H530z"/>

<path d="M567.7,384.7h10.2l15.4,21.2c1,1.5,1.9,3.1,2.5,4.5h0.1v-4.9v-20.8h8.5v37h-9.7l-15.9-21.5c-0.9-1.4-1.9-3.1-2.4-4.3h-0.2

	c0.1,1.6,0.1,3.2,0.1,5v20.8h-8.5V384.7z"/>

<path d="M630.4,403.4c0-11.7,8.1-19.7,21.1-19.7c10.5,0,17.2,4.8,18.9,11.7l-9.6,1.8c-1-3.8-4.1-6.5-9.4-6.5

	c-7.1,0-11.2,4.9-11.2,12.7c0,7.7,4.1,12.6,11.3,12.6c6.6,0,10.3-4,10.4-7.8v-0.6h-11.3V401h19.9v20.6h-6.8l-0.4-5.8

	c-2.1,4-6.8,6.8-13.9,6.8C637.5,422.7,630.4,415,630.4,403.4z"/>

<path d="M735.4,421.7v-37h9.3v37H735.4z"/>

<path d="M773.1,384.7h10.2l15.4,21.2c1,1.5,1.9,3.1,2.5,4.5h0.1v-4.9v-20.8h8.5v37h-9.7l-15.9-21.5c-0.9-1.4-1.9-3.1-2.4-4.3h-0.2

	c0.1,1.6,0.1,3.2,0.1,5v20.8h-8.5V384.7z"/>

<path d="M907,414.8v6.8h-30.7v-37h30.3v6.8h-21v8.1h20.1v6.6h-20.1v8.8H907z"/>

<path d="M945.4,402.5l-14-17.9h10.8l7.7,10.5c0.7,0.9,1.1,1.6,1.4,2.3h0.1c0.3-0.8,0.7-1.4,1.4-2.3l7.8-10.5h10.6l-13.9,18.2

	l14.7,18.8h-11l-8.2-11c-0.8-1.1-1.4-1.8-1.7-2.7h-0.1c-0.3,0.8-0.9,1.7-1.6,2.6l-8.1,11h-10.7L945.4,402.5z"/>

<path d="M996.5,421.7v-37h9.3v37H996.5z"/>

<path d="M1034.1,384.7h9.3v29.5h19.4v7.5h-28.7V384.7z"/>

<path d="M1118.2,414.8v6.8h-30.7v-37h30.3v6.8h-21v8.1h20.1v6.6h-20.1v8.8H1118.2z"/>

<path d="M726,55c-7.2,0-11.7,4.9-11.7,12.8c0,7.8,4.5,12.8,11.7,12.8c7.2,0,11.7-4.9,11.7-12.8C737.7,59.9,733.2,55,726,55"/>

<path d="M532,33c-14.4,0-26,11.7-26,26v43.1h289.9c14.4,0,26-11.7,26-26V33H532z M568.6,55.9h-21.7v8.5h20.7v7h-20.7v15.4h-9.6V48.7

	h31.3V55.9z M611.4,71.9c0,9.7-6.9,16-18.8,16c-11.9,0-18.8-6.4-18.8-16.1V48.7h9.7v22.6c0,5.3,3.3,9,9.1,9c5.8,0,9.1-3.7,9.1-9

	V48.7h9.7V71.9z M649,86.9h-29.6V48.7h9.6v30.4h20V86.9z M683.4,86.9h-29.6V48.7h9.6v30.4h20V86.9z M726,87.9

	c-13.2,0-21.7-7.9-21.7-20.2s8.6-20.2,21.7-20.2c13.2,0,21.7,7.9,21.7,20.2S739.2,87.9,726,87.9 M791.8,86.9h-10l-16.5-22.2

	c-0.9-1.5-2-3.2-2.5-4.5h-0.2c0.1,1.6,0.1,3.3,0.1,5.1v21.5h-8.8V48.7h10.5l15.9,21.9c1,1.5,2,3.2,2.6,4.6h0.1v-5.1V48.7h8.8V86.9z"

	/>

<g>

	<path d="M140.6,233.5c-1,10.3-3.6,27.4-7.5,53.4l-10.3,66.3H85.8l-32-192.1h33.8l12.4,88c3.4,24,5.9,45.2,7,55

		c0.8-10.1,3.6-31,7-55l12.4-88h29.7l12.6,88c3.1,23,5.9,43.9,7,54.2c0.8-10.3,3.6-31,7-54.2l12.4-88h32l-32,192.1h-36.9l-10.1-66.3

		C143.9,260.8,141.3,243.8,140.6,233.5z"/>

</g>

<g>

	<path d="M283.3,353.2H249V161.2h34.3V353.2z"/>

</g>

<g>

	<path d="M353.8,161.2v160.6h47v31.5h-81.3V161.2H353.8z"/>

</g>

<g>

	<path d="M423.2,161.2h54c31.2,0,43.6,12.6,43.6,44.7v101.7c0,31.2-12.4,45.7-43.6,45.7h-54V161.2z M457.6,324.1h12.1

		c12.4,0,16.5-7.2,16.5-20.7v-94.2c0-13.9-4.1-20.7-16-20.7h-12.6V324.1z"/>

</g>

<g>

	<path d="M636.2,161.2v29.9h-50.9v47.5h42.3v30.7h-42.3v53.2h52.4v30.7h-86V161.2H636.2z"/>

</g>

<g>

	<path d="M699.7,353.2h-33.8V161.2h60.4c24.8,0,37.2,11.1,37.2,36.4v20.9c0,20.1-10.6,28.4-19.4,31c10.1,3.6,19.4,12.1,19.4,31.8

		V330c0,10.1,1.3,17.6,3.1,21.9v1.3H733c-1.8-3.1-3.4-8.8-3.4-21.9v-44.4c0-13.2-4.4-18.8-15.7-18.8h-14.2V353.2z M699.7,240.7h14.2

		c11.6,0,15.7-6.7,15.7-19.1v-16.5c0-13.2-4.1-18.1-15.7-18.1h-14.2V240.7z"/>

</g>

<g>

	<path d="M872.7,281.2c-0.5-8.8-0.5-19.6-0.5-35.4v-84.7h29.7v192.1h-29.2l-31.5-90.6c-6.5-18.6-9.6-28.1-11.4-35.9

		c0.5,10.3,0.8,20.4,0.8,35.9v90.6h-29.9V161.2h33l27.9,84.7C867.5,263.7,870.4,272.7,872.7,281.2z"/>

</g>

<g>

	<path d="M1017.8,161.2v29.9h-50.9v47.5h42.3v30.7h-42.3v53.2h52.4v30.7h-86V161.2H1017.8z"/>

</g>

<g>

	<path d="M1045.6,316.1v-32h33.6v26.3c0,10.6,5.7,15.7,15.5,15.7s15.2-5.9,15.2-18.1V306c0-12.6-4.1-19.4-14.5-28.7l-25-22.7

		c-15.2-13.7-23.5-26.3-23.5-47.5v-5.4c0-28.1,16.3-42.6,46.7-42.6h5.4c28.1,0,44.4,12.1,44.4,37.2v25.3h-33V203

		c0-11.6-4.6-16.3-13.9-16.3c-10.3,0-14.7,5.4-14.7,15.5v1.8c0,11.1,3.9,16.5,14.2,26.3l24.8,23c17,16,24.8,27.6,24.8,50.3v5.4

		c0,26.8-14.7,46.2-48,46.2h-5.7C1061.6,355.3,1045.6,340.9,1045.6,316.1z"/>

</g>

<g>

	<path d="M1172.1,316.1v-32h33.6v26.3c0,10.6,5.7,15.7,15.5,15.7s15.2-5.9,15.2-18.1V306c0-12.6-4.1-19.4-14.5-28.7l-25-22.7

		c-15.2-13.7-23.5-26.3-23.5-47.5v-5.4c0-28.1,16.3-42.6,46.7-42.6h5.4c28.1,0,44.4,12.1,44.4,37.2v25.3h-33V203

		c0-11.6-4.6-16.3-13.9-16.3c-10.3,0-14.7,5.4-14.7,15.5v1.8c0,11.1,3.9,16.5,14.2,26.3l24.8,23c17,16,24.8,27.6,24.8,50.3v5.4

		c0,26.8-14.7,46.2-48,46.2h-5.7C1188.1,355.3,1172.1,340.9,1172.1,316.1z"/>

</g>

</svg>

