<svg id="Obj" xmlns="http://www.w3.org/2000/svg" viewBox="0 0 1530.78 317.33"><defs><style>.cls-1{fill:#fff;}.cls-2{fill:#ffcf52;}.cls-3{fill:none;stroke:#fff;stroke-miterlimit:10;stroke-width:6px;}</style></defs><title>FullOnHollywood_Logo-Dark_v02</title><path class="cls-1" d="M70.3,142.11v-71h46.2v4.6H75.4v28.2h34.9v4.4H75.4v33.8Z"/><path class="cls-1" d="M158.2,137.91a23.92,23.92,0,0,0,12-2.7,20.77,20.77,0,0,0,7.5-7.1,30.12,30.12,0,0,0,3.9-10,56.1,56.1,0,0,0,1.15-11.3V71.11h5.1v35.7a58.47,58.47,0,0,1-1.55,13.6,32.8,32.8,0,0,1-5.05,11.45,25.07,25.07,0,0,1-9.1,7.85,29.76,29.76,0,0,1-13.8,2.9q-8.5,0-14.2-3a25.34,25.34,0,0,1-9.15-8.1A33,33,0,0,1,130,120a59.5,59.5,0,0,1-1.45-13.2V71.11h5.1v35.7a57,57,0,0,0,1.15,11.5,28.34,28.34,0,0,0,4,9.95,21.46,21.46,0,0,0,7.55,7A23.76,23.76,0,0,0,158.2,137.91Z"/><path class="cls-1" d="M205.3,142.11v-71h5.1v66.4h42.4v4.6Z"/><path class="cls-1" d="M263.4,142.11v-71h5.1v66.4h42.4v4.6Z"/><path class="cls-1" d="M194.5,245.61a29.35,29.35,0,0,1-13.5-3.1,34.84,34.84,0,0,1-10.5-8.1,36.18,36.18,0,0,1-6.8-11.5,38.12,38.12,0,0,1-2.4-13.3,36.91,36.91,0,0,1,2.55-13.6,38,38,0,0,1,7-11.5,33.49,33.49,0,0,1,10.55-7.95,29.92,29.92,0,0,1,13.2-3,29.28,29.28,0,0,1,13.55,3.15,34,34,0,0,1,10.5,8.25,38.13,38.13,0,0,1,6.75,11.55,37.6,37.6,0,0,1-7.15,38.2,33.85,33.85,0,0,1-10.55,7.9A29.91,29.91,0,0,1,194.5,245.61Zm-28.1-36a34.17,34.17,0,0,0,2,11.75,31.72,31.72,0,0,0,5.8,10,28.54,28.54,0,0,0,8.95,7,25.11,25.11,0,0,0,11.4,2.6,24.5,24.5,0,0,0,11.55-2.7,28.2,28.2,0,0,0,8.8-7.15,33.9,33.9,0,0,0,5.55-33.2,32.52,32.52,0,0,0-5.85-10,28.94,28.94,0,0,0-8.85-7,24.31,24.31,0,0,0-11.2-2.6A24.79,24.79,0,0,0,183,181a28.58,28.58,0,0,0-8.9,7.15,32.87,32.87,0,0,0-5.7,10.05A33.64,33.64,0,0,0,166.4,209.61Z"/><path class="cls-1" d="M246.6,183.71v61.4h-5.1v-71h3.9l49.8,62.5v-62.5h5.1v71h-4.7Z"/><path class="cls-2" d="M469.17,139.8V71.42h35.62V244.84H469.17V170.22H442.65v74.62H407V71.42h35.62V139.8Z"/><path class="cls-2" d="M634,159.56c0,60.32-17.16,87.88-54.6,87.88-36.66,0-53.82-29.12-53.82-90.22,0-60.58,17.42-88.4,55.38-88.4C616.84,68.82,634,98.2,634,159.56Zm-70.72-1c0,45.76,3.64,58,16.64,58,13.78,0,16.38-9.88,16.38-60.58,0-43.68-3.64-56.16-16.12-56.16C566.66,99.76,563.28,112,563.28,158.52Z"/><path class="cls-2" d="M655.06,71.42h35.62V212.86h44.2v32H655.06Z"/><path class="cls-2" d="M748.14,71.42h35.62V212.86H828v32H748.14Z"/><path class="cls-2" d="M852.39,173.6,817.82,71.42h37.44l15.08,55.12c2.08,7.54,2.86,15.34,3.12,27.56.78-12,2.08-19.24,4.42-27.56l16.64-55.12h32L888,173.6v71.24H852.39Z"/><path class="cls-2" d="M933.51,71.42h37.7l9.62,82.16c1.56,14,2.6,25.22,3.38,45,1-15.6,2.86-31.72,5.72-49.92l12.48-77.22h32l13.78,81.12c1.56,9.62,2.08,14.82,4.42,46,1.3-24.7,2.34-38.74,3.9-49.92l10.4-77.22h30.68l-31.46,173.42h-31.2l-14.82-85c-2.86-17.16-3.9-27-4.16-39-1.3,13.78-3.12,29.38-4.68,39l-14.82,85h-31.2Z"/><path class="cls-2" d="M1212,159.56c0,60.32-17.16,87.88-54.6,87.88-36.66,0-53.82-29.12-53.82-90.22,0-60.58,17.42-88.4,55.38-88.4C1194.81,68.82,1212,98.2,1212,159.56Zm-70.72-1c0,45.76,3.64,58,16.64,58,13.78,0,16.38-9.88,16.38-60.58,0-43.68-3.64-56.16-16.12-56.16C1144.63,99.76,1141.25,112,1141.25,158.52Z"/><path class="cls-2" d="M1336,159.56c0,60.32-17.16,87.88-54.6,87.88-36.66,0-53.82-29.12-53.82-90.22,0-60.58,17.42-88.4,55.38-88.4C1318.83,68.82,1336,98.2,1336,159.56Zm-70.72-1c0,45.76,3.64,58,16.64,58,13.78,0,16.38-9.88,16.38-60.58,0-43.68-3.64-56.16-16.12-56.16C1268.65,99.76,1265.27,112,1265.27,158.52Z"/><path class="cls-2" d="M1357,71.42h33.28c26.52,0,38.22,2.86,49.66,12,16.12,13.26,24.44,38.22,24.44,72.54,0,37.44-8.84,63.7-26.26,78-9.36,7.54-19.76,10.92-34.58,10.92H1357Zm45.24,143c8.84,0,14.56-2.34,17.68-7,4.68-7.54,6.76-23.4,6.76-48.88,0-23.14-2.34-40.3-6.24-48.1-3.38-6-9.1-8.84-18.2-8.84h-10.4V214.42Z"/><line class="cls-3" x1="348.61" y1="70.48" x2="348.61" y2="244.83"/></svg>