<svg width="1200" height="546" viewBox="0 0 1200 546" fill="none" xmlns="http://www.w3.org/2000/svg">
<path d="M388.374 137V86.6H419.982V92.792H396.006V108.704H415.878V114.824H396.006V137H388.374ZM460.011 101.288V137H453.243L452.667 130.736C451.563 132.944 449.931 134.696 447.771 135.992C445.659 137.24 443.211 137.864 440.427 137.864C436.107 137.864 432.699 136.52 430.203 133.832C427.755 131.144 426.531 127.136 426.531 121.808V101.288H434.091V121.016C434.091 127.928 436.923 131.384 442.587 131.384C445.419 131.384 447.747 130.376 449.571 128.36C451.443 126.344 452.379 123.464 452.379 119.72V101.288H460.011ZM469.648 137V85.16H477.28V137H469.648ZM486.945 137V85.16H494.577V137H486.945ZM545.927 137.864C540.935 137.864 536.567 136.76 532.823 134.552C529.079 132.344 526.151 129.296 524.039 125.408C521.927 121.472 520.871 116.936 520.871 111.8C520.871 106.664 521.927 102.152 524.039 98.264C526.151 94.328 529.079 91.256 532.823 89.048C536.567 86.84 540.935 85.736 545.927 85.736C550.919 85.736 555.287 86.84 559.031 89.048C562.775 91.256 565.679 94.328 567.743 98.264C569.855 102.152 570.911 106.664 570.911 111.8C570.911 116.936 569.855 121.472 567.743 125.408C565.679 129.296 562.775 132.344 559.031 134.552C555.287 136.76 550.919 137.864 545.927 137.864ZM545.927 131.024C549.383 131.024 552.383 130.256 554.927 128.72C557.519 127.184 559.535 124.976 560.975 122.096C562.415 119.216 563.135 115.784 563.135 111.8C563.135 107.816 562.415 104.384 560.975 101.504C559.535 98.624 557.519 96.416 554.927 94.88C552.383 93.344 549.383 92.576 545.927 92.576C542.471 92.576 539.447 93.344 536.855 94.88C534.263 96.416 532.247 98.624 530.807 101.504C529.415 104.384 528.719 107.816 528.719 111.8C528.719 115.784 529.415 119.216 530.807 122.096C532.247 124.976 534.263 127.184 536.855 128.72C539.447 130.256 542.471 131.024 545.927 131.024ZM579.125 137V101.288H585.893L586.469 107.552C587.573 105.344 589.181 103.616 591.293 102.368C593.453 101.072 595.925 100.424 598.709 100.424C603.029 100.424 606.413 101.768 608.861 104.456C611.357 107.144 612.605 111.152 612.605 116.48V137H605.045V117.272C605.045 110.36 602.213 106.904 596.549 106.904C593.717 106.904 591.365 107.912 589.493 109.928C587.669 111.944 586.757 114.824 586.757 118.568V137H579.125ZM639.014 137V131.528C642.278 128.936 645.398 126.32 648.374 123.68C651.35 121.04 653.99 118.448 656.294 115.904C658.646 113.312 660.494 110.792 661.838 108.344C663.182 105.848 663.854 103.448 663.854 101.144C663.854 99.608 663.59 98.168 663.062 96.824C662.534 95.432 661.67 94.328 660.47 93.512C659.27 92.648 657.662 92.216 655.646 92.216C652.622 92.216 650.342 93.176 648.806 95.096C647.318 97.016 646.598 99.32 646.646 102.008H639.23C639.278 98.456 640.022 95.48 641.462 93.08C642.95 90.68 644.918 88.856 647.366 87.608C649.862 86.36 652.67 85.736 655.79 85.736C660.542 85.736 664.334 87.08 667.166 89.768C670.046 92.408 671.486 96.104 671.486 100.856C671.486 103.688 670.79 106.496 669.398 109.28C668.054 112.064 666.278 114.752 664.07 117.344C661.91 119.888 659.582 122.288 657.086 124.544C654.59 126.8 652.214 128.84 649.958 130.664H672.998V137H639.014ZM700.823 137.864C696.263 137.864 692.327 136.784 689.015 134.624C685.751 132.416 683.231 129.368 681.455 125.48C679.727 121.544 678.863 116.984 678.863 111.8C678.863 106.616 679.727 102.08 681.455 98.192C683.231 94.256 685.751 91.208 689.015 89.048C692.327 86.84 696.263 85.736 700.823 85.736C705.383 85.736 709.295 86.84 712.559 89.048C715.823 91.208 718.319 94.256 720.047 98.192C721.823 102.08 722.711 106.616 722.711 111.8C722.711 116.984 721.823 121.544 720.047 125.48C718.319 129.368 715.823 132.416 712.559 134.624C709.295 136.784 705.383 137.864 700.823 137.864ZM700.823 131.024C703.559 131.024 705.983 130.256 708.095 128.72C710.255 127.184 711.935 124.976 713.135 122.096C714.335 119.216 714.935 115.784 714.935 111.8C714.935 107.816 714.335 104.384 713.135 101.504C711.935 98.624 710.255 96.416 708.095 94.88C705.983 93.344 703.559 92.576 700.823 92.576C698.039 92.576 695.591 93.344 693.479 94.88C691.367 96.416 689.711 98.624 688.511 101.504C687.311 104.384 686.711 107.816 686.711 111.8C686.711 115.784 687.311 119.216 688.511 122.096C689.711 124.976 691.367 127.184 693.479 128.72C695.591 130.256 698.039 131.024 700.823 131.024ZM729.647 137V131.528C732.911 128.936 736.031 126.32 739.007 123.68C741.983 121.04 744.623 118.448 746.927 115.904C749.279 113.312 751.127 110.792 752.471 108.344C753.815 105.848 754.487 103.448 754.487 101.144C754.487 99.608 754.223 98.168 753.695 96.824C753.167 95.432 752.303 94.328 751.103 93.512C749.903 92.648 748.295 92.216 746.279 92.216C743.255 92.216 740.975 93.176 739.439 95.096C737.951 97.016 737.231 99.32 737.279 102.008H729.863C729.911 98.456 730.655 95.48 732.095 93.08C733.583 90.68 735.551 88.856 737.999 87.608C740.495 86.36 743.303 85.736 746.423 85.736C751.175 85.736 754.967 87.08 757.799 89.768C760.679 92.408 762.119 96.104 762.119 100.856C762.119 103.688 761.423 106.496 760.031 109.28C758.687 112.064 756.911 114.752 754.703 117.344C752.543 119.888 750.215 122.288 747.719 124.544C745.223 126.8 742.847 128.84 740.591 130.664H763.631V137H729.647ZM791.456 137.864C786.896 137.864 782.96 136.784 779.648 134.624C776.384 132.416 773.864 129.368 772.088 125.48C770.36 121.544 769.496 116.984 769.496 111.8C769.496 106.616 770.36 102.08 772.088 98.192C773.864 94.256 776.384 91.208 779.648 89.048C782.96 86.84 786.896 85.736 791.456 85.736C796.016 85.736 799.928 86.84 803.192 89.048C806.456 91.208 808.952 94.256 810.68 98.192C812.456 102.08 813.344 106.616 813.344 111.8C813.344 116.984 812.456 121.544 810.68 125.48C808.952 129.368 806.456 132.416 803.192 134.624C799.928 136.784 796.016 137.864 791.456 137.864ZM791.456 131.024C794.192 131.024 796.616 130.256 798.728 128.72C800.888 127.184 802.568 124.976 803.768 122.096C804.968 119.216 805.568 115.784 805.568 111.8C805.568 107.816 804.968 104.384 803.768 101.504C802.568 98.624 800.888 96.416 798.728 94.88C796.616 93.344 794.192 92.576 791.456 92.576C788.672 92.576 786.224 93.344 784.112 94.88C782 96.416 780.344 98.624 779.144 101.504C777.944 104.384 777.344 107.816 777.344 111.8C777.344 115.784 777.944 119.216 779.144 122.096C780.344 124.976 782 127.184 784.112 128.72C786.224 130.256 788.672 131.024 791.456 131.024Z" fill="#00FFFF"/>
<path d="M264.481 297H305.377V256.968L362.689 189.864H317.905L286.081 226.872L254.833 189.864H205.873L264.481 256.68V297ZM429.965 187.848C360.557 187.848 351.773 220.824 351.773 240.984V245.304C351.773 265.32 360.557 299.016 429.965 299.016H436.445C505.709 299.016 514.493 265.32 514.493 245.304V240.984C514.493 220.824 505.565 187.848 436.445 187.848H429.965ZM472.157 244.008C472.157 255.528 464.813 270.072 433.133 270.072C401.453 270.072 394.109 254.952 394.109 243.72V241.992C394.109 230.616 400.877 216.648 433.133 216.648C464.813 216.648 472.157 230.616 472.157 241.992V244.008ZM526.414 240.984C526.414 261.72 535.198 298.728 597.55 298.728H603.31C663.934 298.728 673.87 261.72 673.87 240.984V189.864H632.974V237.816C632.974 250.92 626.926 266.616 600.286 266.616C573.214 266.616 567.454 250.92 567.454 237.816V189.864H526.414V240.984ZM732.264 297H773.16V219.096H819.384V189.864H686.04V219.096H732.264V297ZM832.857 297H873.753V256.248H940.713V297H981.465V189.864H940.713V227.736H873.753V189.864H832.857V297ZM353.821 443.016C418.333 443.016 428.413 412.776 428.413 398.808V396.504H386.077C385.501 398.952 382.333 414.072 350.797 414.072C321.997 414.072 314.797 398.952 314.797 387.432V385.704C314.797 373.752 321.133 360.648 350.653 360.648C381.757 360.648 385.069 374.184 385.933 377.064H428.413V375.192C428.413 361.368 418.909 331.848 353.821 331.848H348.205C281.389 331.848 272.461 364.536 272.461 384.984V389.16C272.461 409.464 282.397 443.016 348.205 443.016H353.821ZM521.626 396.936H486.058L503.626 360.072L521.626 396.936ZM543.082 441H587.866L531.85 333.864H476.842L423.85 441H465.322L473.53 423.72H534.73L543.082 441ZM595.415 441H635.303V374.184L672.743 441H693.623L731.207 374.184V441H771.671V333.864H717.815L684.407 394.056L651.575 333.864H595.415V441ZM877.7 407.448C916.868 407.448 928.532 391.032 928.532 371.592V369.288C928.532 349.56 917.3 333.864 877.7 333.864H788.42V441H829.316V407.448H877.7ZM829.316 360.648H872.804C882.452 360.648 886.34 364.248 886.34 370.44V370.872C886.34 376.776 882.164 380.664 872.804 380.664H829.316V360.648Z" fill="white"/>
</svg>
