<?xml version="1.0" encoding="utf-8"?>
<!-- Generator: Adobe Illustrator 22.1.0, SVG Export Plug-In . SVG Version: 6.00 Build 0)  -->
<svg version="1.1" id="Layer_1" xmlns="http://www.w3.org/2000/svg" xmlns:xlink="http://www.w3.org/1999/xlink" x="0px" y="0px"
	 viewBox="0 0 24 24" style="enable-background:new 0 0 24 24;" xml:space="preserve">
<path d="M17,2H7C4.2,2,2,4.2,2,7v10c0,2.8,2.2,5,5,5h10c2.8,0,5-2.2,5-5V7C22,4.2,19.8,2,17,2z M12.7,16.6c-2.6,0.4-4.9-1.4-5.3-3.9
	s1.4-4.9,3.9-5.3c0.5-0.1,0.9-0.1,1.4,0c2,0.3,3.6,1.9,3.9,3.9C17,13.8,15.3,16.2,12.7,16.6z M17.5,7.5c-0.6,0-1-0.4-1-1s0.4-1,1-1
	h0c0.6,0,1,0.4,1,1S18.1,7.5,17.5,7.5z"/>
<text transform="matrix(1 0 0 1 960 540)" style="font-family:'MyriadPro-Regular'; font-size:12px;">If this is you send an email to [Al James](mailto:al@stphils.org.au), which indicates the amount you are able to pay, and subsidies will be organised.</text>
</svg>
